Coordinates
version=1
nRows=24
nColumns=38
inDegrees=no

Units are S.I. units (second, meters, Newtons, ...)
If the header above contains a line with 'inDegrees', this indicates whether rotational values are in degrees (yes) or radians (no).

endheader
time	pelvis_tilt	pelvis_list	pelvis_rotation	pelvis_tx	pelvis_ty	pelvis_tz	hip_flexion_r	hip_adduction_r	hip_rotation_r	knee_angle_r	ankle_angle_r	subtalar_angle_r	mtp_angle_r	hip_flexion_l	hip_adduction_l	hip_rotation_l	knee_angle_l	ankle_angle_l	subtalar_angle_l	mtp_angle_l	lumbar_extension	lumbar_bending	lumbar_rotation	arm_flex_r	arm_add_r	arm_rot_r	elbow_flex_r	pro_sup_r	wrist_flex_r	wrist_dev_r	arm_flex_l	arm_add_l	arm_rot_l	elbow_flex_l	pro_sup_l	wrist_flex_l	wrist_dev_l
1.68	1.52209	1.51232	-3.02117	0.73276	-0.645091	0.954104	0.586549	-0.213116	-0.130047	0.734766	0.00912888	0	0	-0.0277203	0.143715	0.0265377	0.238367	0.228445	0	0	-0.073485	-0.102125	-0.210879	-0.00732585	-0.189322	0.0904388	0.249568	1.18743	0	0	0.10991	-0.370519	-0.261338	0	1.5708	0	0
1.69	1.55743	1.51399	-3.05673	0.731563	-0.655766	0.952952	0.583586	-0.211536	-0.143313	0.671453	0.0137541	0	0	-0.0418567	0.139863	0.0285302	0.231716	0.237239	0	0	-0.0727034	-0.100276	-0.209585	-0.00756912	-0.190144	0.0855259	0.252326	1.19367	0	0	0.113743	-0.369168	-0.253136	0	1.5708	0	0
1.7	1.59657	1.51572	-3.09561	0.730286	-0.666488	0.951706	0.578885	-0.209171	-0.156578	0.607114	0.0196747	0	0	-0.0553752	0.135651	0.0308875	0.226216	0.246315	0	0	-0.0716228	-0.0982413	-0.208922	-0.00681204	-0.190748	0.0846938	0.252349	1.19779	0	0	0.117807	-0.367881	-0.247869	0	1.5708	0	0
1.71	1.62429	1.51806	-3.12363	0.728848	-0.677335	0.950463	0.571403	-0.204732	-0.169121	0.540997	0.025887	0	0	-0.0699852	0.130437	0.0321423	0.21995	0.254828	0	0	-0.0712473	-0.0953996	-0.207687	-0.00528074	-0.190953	0.0817884	0.250651	1.20756	0	0	0.120951	-0.366248	-0.239574	0	1.5708	0	0
1.72	1.68802	1.52003	3.09584	0.727281	-0.688345	0.948963	0.564699	-0.199476	-0.179721	0.475102	0.0327916	0	0	-0.0820953	0.125185	0.0326722	0.215131	0.263838	0	0	-0.0684349	-0.0931648	-0.20699	-0.00530328	-0.19102	0.0806947	0.25143	1.2129	0	0	0.123677	-0.364873	-0.23547	0	1.5708	0	0
1.73	1.73712	1.52288	3.04685	0.725554	-0.69967	0.947508	0.554616	-0.191889	-0.188675	0.408504	0.0408309	0	0	-0.09575	0.118497	0.0327351	0.2103	0.27304	0	0	-0.066216	-0.0901666	-0.206806	-0.00512076	-0.190566	0.0783653	0.25106	1.22236	0	0	0.124342	-0.363681	-0.233186	0	1.5708	0	0
1.74	1.80711	1.52562	2.97752	0.723736	-0.711191	0.945935	0.54393	-0.183375	-0.194249	0.342909	0.048903	0	0	-0.108665	0.111406	0.0327265	0.206028	0.282258	0	0	-0.0628835	-0.0872203	-0.207503	-0.00448527	-0.189563	0.0778774	0.248777	1.22762	0	0	0.124236	-0.362533	-0.233581	0	1.5708	0	0
1.75	1.88707	1.5318	2.89909	0.722202	-0.722784	0.944852	0.529095	-0.170869	-0.197546	0.275517	0.0524672	0	0	-0.122252	0.100624	0.0330233	0.202141	0.290472	0	0	-0.0620745	-0.0837028	-0.222668	0.00906428	-0.186763	0.0996281	0.233296	1.22971	0	0	0.112947	-0.363293	-0.25958	0	1.5708	0	0
1.76	1.98238	1.53441	2.80528	0.720197	-0.734703	0.943113	0.517115	-0.161294	-0.195127	0.215904	0.0588315	0	0	-0.134441	0.0924972	0.0317428	0.200857	0.300097	0	0	-0.0579704	-0.0807751	-0.225206	0.0086997	-0.185558	0.107538	0.231835	1.22616	0	0	0.11255	-0.362473	-0.269273	0	1.5708	0	0
1.77	2.09005	1.53674	2.6996	0.718128	-0.746819	0.941316	0.504798	-0.151944	-0.188537	0.160437	0.063191	0	0	-0.145827	0.0840947	0.0296312	0.201722	0.309249	0	0	-0.0535642	-0.0778065	-0.227686	0.00581879	-0.18433	0.111974	0.234993	1.22164	0	0	0.111471	-0.361471	-0.274829	0	1.5708	0	0
1.78	2.2003	1.53883	2.59164	0.716043	-0.75913	0.939519	0.492159	-0.143239	-0.178795	0.110568	0.0652138	0	0	-0.156729	0.0757059	0.0270233	0.204343	0.318544	0	0	-0.0489305	-0.0748295	-0.230479	0.0035673	-0.182794	0.116872	0.235781	1.21722	0	0	0.109153	-0.360211	-0.27727	0	1.5708	0	0
1.79	2.3142	1.54018	2.48042	0.714006	-0.77162	0.93771	0.481926	-0.136307	-0.169837	0.0720462	0.0684855	0	0	-0.16643	0.0678179	0.0247783	0.209912	0.328098	0	0	-0.0437766	-0.0722007	-0.233595	0.00175351	-0.181213	0.122102	0.234952	1.21368	0	0	0.10593	-0.358588	-0.279829	0	1.5708	0	0
1.8	2.40672	1.54005	2.39039	0.711964	-0.784213	0.935928	0.478287	-0.132655	-0.166402	0.054195	0.0782508	0	0	-0.174421	0.0615073	0.0229687	0.218523	0.335612	0	0	-0.0385932	-0.070888	-0.236289	-3.45281e-05	-0.179418	0.124607	0.234181	1.21277	0	0	0.102217	-0.356738	-0.283291	0	1.5708	0	0
1.81	2.46228	1.5409	2.337	0.709857	-0.79696	0.934352	0.477792	-0.129888	-0.167473	0.0535838	0.0897623	0	0	-0.182587	0.0549279	0.0206691	0.230415	0.342268	0	0	-0.0351745	-0.0692916	-0.238949	-0.00158051	-0.177496	0.125905	0.233523	1.21206	0	0	0.0975017	-0.354748	-0.288162	0	1.5708	0	0
1.82	2.49373	1.54298	2.30734	0.707782	-0.809776	0.932953	0.480743	-0.127913	-0.17328	0.0696349	0.0985112	0	0	-0.1906	0.0480915	0.0182965	0.245648	0.348183	0	0	-0.0332273	-0.0670104	-0.242084	-0.00245806	-0.175813	0.127386	0.232728	1.21053	0	0	0.0918955	-0.352461	-0.294827	0	1.5708	0	0
1.83	2.53819	1.54539	2.2648	0.705776	-0.822738	0.931635	0.486304	-0.126385	-0.180712	0.0967513	0.10102	0	0	-0.197092	0.0409185	0.0166059	0.264145	0.35303	0	0	-0.0313607	-0.0638295	-0.245734	-0.00341389	-0.174804	0.129657	0.232608	1.20878	0	0	0.0853924	-0.34962	-0.30344	0	1.5708	0	0
1.84	2.62929	1.54765	2.1773	0.703899	-0.835958	0.930344	0.492181	-0.124955	-0.18876	0.128731	0.0966786	0	0	-0.201295	0.0328425	0.0169104	0.28585	0.356703	0	0	-0.0288522	-0.0595309	-0.251215	-0.00523573	-0.173872	0.131423	0.232934	1.20611	0	0	0.0775263	-0.346334	-0.314482	0	1.5708	0	0
1.85	2.76255	1.54964	2.04889	0.702169	-0.849528	0.929116	0.496926	-0.123374	-0.197278	0.162664	0.0896844	0	0	-0.203665	0.0241237	0.0185556	0.310929	0.358988	0	0	-0.0249671	-0.0546638	-0.258821	-0.0076889	-0.173633	0.134488	0.234683	1.20526	0	0	0.0678402	-0.342619	-0.326901	0	1.5708	0	0
1.86	2.92885	1.55064	1.88827	0.700513	-0.863482	0.927911	0.500402	-0.121689	-0.206032	0.197219	0.0857044	0	0	-0.203892	0.015164	0.0200243	0.339088	0.359953	0	0	-0.0197381	-0.0495639	-0.267319	-0.0108617	-0.174138	0.139461	0.236554	1.20651	0	0	0.0573887	-0.338585	-0.3397	0	1.5708	0	0
1.87	3.09932	1.54995	1.7245	0.698938	-0.877809	0.926627	0.501823	-0.119946	-0.214098	0.228171	0.0878373	0	0	-0.201259	0.00623524	0.0214225	0.370779	0.358924	0	0	-0.0125853	-0.0445326	-0.276635	-0.0155134	-0.175006	0.144361	0.238448	1.20766	0	0	0.0459674	-0.334335	-0.352122	0	1.5708	0	0
1.88	-3.0402	1.54747	1.58823	0.697382	-0.892448	0.925275	0.500691	-0.117503	-0.219756	0.250829	0.0875047	0	0	-0.194841	-0.00292627	0.0221758	0.407032	0.355575	0	0	-0.00348103	-0.0396138	-0.286031	-0.0220668	-0.176499	0.148373	0.241653	1.20948	0	0	0.0336511	-0.32999	-0.363316	0	1.5708	0	0
1.89	-2.90645	1.54411	1.46169	0.695684	-0.907117	0.924014	0.497708	-0.113464	-0.224419	0.264066	0.0690892	0	0	-0.184825	-0.0130973	0.0219365	0.448301	0.349018	0	0	0.00656795	-0.0340086	-0.293759	-0.0295801	-0.177943	0.151581	0.244185	1.21046	0	0	0.0222139	-0.325635	-0.372772	0	1.5708	0	0
1.9	-2.75776	1.53953	1.31765	0.693608	-0.921414	0.923069	0.496392	-0.10683	-0.227525	0.274311	0.0304161	0	0	-0.16985	-0.0248602	0.0192531	0.496185	0.337398	0	0	0.0167847	-0.0263286	-0.297856	-0.0373868	-0.179853	0.155273	0.248712	1.21146	0	0	0.0124938	-0.321037	-0.380663	0	1.5708	0	0
1.91	-2.60248	1.53441	1.16179	0.691095	-0.935138	0.922778	0.499044	-0.097585	-0.226307	0.292692	-0.0039708	0	0	-0.151178	-0.0372878	0.0130229	0.549569	0.318004	0	0	0.0244924	-0.0159081	-0.297022	-0.0431619	-0.182088	0.159308	0.255007	1.21397	0	0	0.00387039	-0.315598	-0.386894	0	1.5708	0	0
